<svg width="103" height="769" viewBox="0 0 103 769" fill="none" xmlns="http://www.w3.org/2000/svg">
<path d="M6.5081 604.896L22.0543 588.2L34.9634 596.396L50.9634 565.396L67.4634 596.396L84.4419 579.969L96.2366 604.896L96.2366 128.851C94.5831 128.336 92.7545 127.789 90.3812 127.22C87.6089 126.556 84.3388 125.89 80.5609 125.295C76.7829 124.699 72.4968 124.176 67.6878 123.802C62.8788 123.428 57.5475 123.203 51.6819 123.203C45.5882 123.203 40.0523 123.445 35.0667 123.845C30.0811 124.246 25.6466 124.804 21.7542 125.433C17.8618 126.063 14.5118 126.765 11.6976 127.453C9.56369 127.974 8.02962 128.453 6.50812 128.922L6.5081 604.896Z" fill="#1F2236"/>
<path d="M6.50811 604.896L6.50811 607.83L32.305 692.832L35.0667 691.914L41.012 690.582L47.0569 689.845L51.3733 689.697L57.4573 690L64.1331 681.773L69.3811 692.419L70.4261 692.798L96.2366 607.83L96.2366 604.896L85.3674 578.667L67.9634 594.896L51.4483 564.743L33.4634 593.396L21.8236 587.068L6.50811 604.896Z" fill="#EAA772"/>
<path d="M96.2366 80.9196L96.2366 11.8415C96.2366 11.8415 86.3808 4.0036 51.6175 4.0036C16.8542 4.0036 6.50812 11.8415 6.50812 11.8415L6.50812 80.9665C8.41582 80.3686 10.1563 79.777 13.098 79.0973C15.2178 78.6076 17.6067 78.117 20.2698 77.6579C22.933 77.1987 25.8705 76.7694 29.0823 76.402C32.2942 76.0347 35.7813 75.7296 39.5472 75.5153C43.313 75.301 47.3567 75.1794 51.6819 75.1794C56.0072 75.1794 60.0424 75.301 63.7913 75.5153C67.5403 75.7296 71.003 76.0347 74.1859 76.402C77.3687 76.7694 80.2718 77.1987 82.8987 77.6579C85.5256 78.117 87.8762 78.6076 89.9573 79.0973C92.7728 79.7599 94.398 80.3328 96.2366 80.9196Z" fill="#FFDD77"/>
<path d="M51.4643 567.19L51.4643 471.836L51.4643 241.601L51.4643 121.418" stroke="black" stroke-width="3"/>
<path d="M70.4251 692.799L96.236 607.829L96.236 11.841C96.236 11.841 86.3816 4.00452 51.6183 4.00451C16.855 4.00451 6.50889 11.8409 6.50889 11.8409L6.50886 607.829L32.3053 692.832L35.0663 691.914L41.0115 690.581L47.0578 689.845L51.3724 689.696L57.4572 690L64.1324 681.773L69.3814 692.419L70.4251 692.799Z" stroke="black" stroke-width="7.38828" stroke-linecap="square"/>
<path d="M32.3053 692.832L51.3531 755.594L70.4251 692.799L59.8334 671.501L56.601 692.812L32.3053 692.832Z" fill="black" stroke="black" stroke-width="7.38828"/>
<path d="M96.236 605.554L85.2148 579.299L67.5082 596.086L51.3724 564.424L35.8404 595.997L21.2893 587.05L6.50886 605.554" stroke="black" stroke-width="4.92552" stroke-linejoin="round"/>
<path d="M84.9869 581.992L84.987 121.418" stroke="black" stroke-width="3"/>
<path d="M20.9892 588.087L20.9892 121.418" stroke="black" stroke-width="3"/>
<path d="M102.282 131.039L99.5275 132.204C98.8759 131.965 98.1074 129.412 97.2203 129.125C90.0526 126.805 75.144 123.202 51.682 123.202C27.3071 123.202 11.8569 127.091 4.85335 129.39C3.95046 129.687 4.38514 131.915 3.76167 132.147L0.463379 131.039L0.463381 83.015C0.463381 83.015 17.0803 75.1785 51.682 75.1785C86.2837 75.1785 102.282 83.015 102.282 83.015L102.282 131.039Z" fill="black"/>
<path d="M97.5116 97.8863C97.5116 97.8863 86.3946 91.4167 51.6755 91.4167C16.9564 91.4166 5.3303 97.8863 5.3303 97.8863L5.3303 87.7775C5.3303 87.7775 16.9564 81.3077 51.6755 81.3077C86.3946 81.3077 97.5116 87.7775 97.5116 87.7775L97.5116 97.8863Z" fill="#444444"/>
<path d="M97.5116 123.543C97.5116 123.543 86.3946 117.073 51.6755 117.073C16.9564 117.073 5.3303 123.543 5.3303 123.543L5.3303 113.434C5.3303 113.434 17.1741 106.964 51.6755 106.964C86.1769 106.964 97.5116 113.434 97.5116 113.434L97.5116 123.543Z" fill="#444444"/>
<path d="M97.5116 107.343C97.5116 107.343 86.3946 100.873 51.6755 100.873C16.9563 100.873 5.3303 107.343 5.3303 107.343L5.3303 103.977C5.3303 103.977 16.9563 97.5073 51.6755 97.5073C86.3946 97.5073 97.5116 103.977 97.5116 103.977L97.5116 107.343Z" fill="#444444"/>
</svg>
