<svg width="418" height="722" viewBox="0 0 418 722" fill="none" xmlns="http://www.w3.org/2000/svg">
<path d="M70.7653 544.135L92.0118 535.827L100.093 548.809L127.948 527.807L129.381 562.895L151.803 555.45L151.627 583.027L357.962 154.022C356.695 152.842 355.284 151.556 353.392 150.015C351.181 148.215 348.523 146.197 345.377 144.023C342.23 141.849 338.594 139.52 334.422 137.098C330.251 134.677 325.544 132.163 320.258 129.62C314.766 126.979 309.673 124.798 305.006 122.998C300.34 121.198 296.102 119.778 292.321 118.659C288.54 117.539 285.217 116.72 282.383 116.12C280.234 115.665 278.644 115.432 277.069 115.194L70.7653 544.135Z" fill="#1F2236"/>
<path d="M70.7653 544.135L69.4938 546.779L55.8987 634.563L58.7854 634.932L64.7206 636.309L70.4874 638.265L74.4416 640.002L79.7932 642.912L89.3749 638.392L89.4898 650.261L90.2673 651.056L150.356 585.67L151.627 583.027L153.2 554.679L130.482 561.76L128.668 527.429L100.042 545.455L92.2945 534.708L70.7653 544.135Z" fill="#EAA772"/>
<path d="M378.737 110.827L408.678 48.5749C408.678 48.5749 403.193 37.2396 371.865 22.172C340.537 7.10433 327.816 9.68339 327.816 9.68339L297.855 71.9778C299.833 72.2659 301.658 72.4871 304.604 73.1496C306.726 73.627 309.092 74.2204 311.691 74.9609C314.29 75.7015 317.123 76.5877 320.177 77.6488C323.23 78.7099 326.505 79.9464 329.992 81.3856C333.478 82.8247 337.175 84.4677 341.073 86.3424C344.971 88.2171 348.555 90.0758 351.84 91.8938C355.126 93.7118 358.114 95.4877 360.823 97.1983C363.532 98.9088 365.963 100.554 368.131 102.106C370.299 103.659 372.205 105.12 373.868 106.463C376.118 108.281 377.334 109.501 378.737 110.827Z" fill="#FFDD77" fill-opacity="0.6"/>
<path d="M127.622 529.641L168.952 443.709L268.744 236.225L320.836 127.918" stroke="black" stroke-width="3"/>
<path d="M90.2663 651.056L150.356 585.669L408.678 48.5741C408.678 48.5741 403.193 37.2408 371.865 22.1731C340.537 7.10549 327.817 9.68321 327.817 9.68321L69.4948 546.778L55.8987 634.563L58.785 634.932L64.7203 636.308L70.4882 638.266L74.441 640.002L79.793 642.912L89.3745 638.392L89.4902 650.261L90.2663 651.056Z" stroke="black" stroke-width="7.38828" stroke-linecap="square"/>
<path d="M55.8987 634.563L45.8611 699.38L90.2663 651.056L89.9523 627.272L77.8025 645.076L55.8987 634.563Z" fill="black" stroke="black" stroke-width="7.38828"/>
<path d="M151.342 583.619L152.789 555.182L129.556 562.635L128.738 527.108L101.056 548.829L91.8212 534.459L70.481 544.728" stroke="black" stroke-width="4.92552" stroke-linejoin="round"/>
<path d="M151.417 557.51L351.046 142.447" stroke="black" stroke-width="3"/>
<path d="M91.101 535.264L293.372 114.709" stroke="black" stroke-width="3"/>
<path d="M362.461 158.614L359.474 158.47C358.99 157.973 359.405 155.339 358.73 154.695C353.276 149.498 341.402 139.789 320.258 129.62C298.292 119.055 282.683 115.863 275.375 114.899C274.433 114.775 273.859 116.972 273.196 116.91L270.704 114.482L291.519 71.2038C291.519 71.2038 309.891 71.3441 341.074 86.3417C372.256 101.339 383.276 115.335 383.276 115.335L362.461 158.614Z" fill="black"/>
<path d="M372.532 126.67C372.532 126.67 365.318 116.021 334.029 100.972C302.741 85.924 289.46 86.7152 289.46 86.7152L293.841 77.6053C293.841 77.6053 307.123 76.814 338.411 91.8625C369.699 106.911 376.914 117.56 376.914 117.56L372.532 126.67Z" fill="#444444"/>
<path d="M361.412 149.791C361.412 149.791 354.197 139.142 322.909 124.093C291.621 109.045 278.339 109.836 278.339 109.836L282.721 100.726C282.721 100.726 296.198 100.029 327.291 114.984C358.383 129.938 365.793 140.681 365.793 140.681L361.412 149.791Z" fill="#444444"/>
<path d="M368.433 135.192C368.433 135.192 361.219 124.543 329.931 109.495C298.642 94.4463 285.361 95.2377 285.361 95.2377L286.82 92.2041C286.82 92.2041 300.101 91.4128 331.39 106.461C362.678 121.51 369.892 132.159 369.892 132.159L368.433 135.192Z" fill="#444444"/>
</svg>
